<?xml version="1.0" encoding="utf-8"?>
<!-- Generator: Adobe Illustrator 19.1.0, SVG Export Plug-In . SVG Version: 6.00 Build 0)  -->
<svg version="1.1" xmlns="http://www.w3.org/2000/svg" xmlns:xlink="http://www.w3.org/1999/xlink" x="0px" y="0px"
	 viewBox="0 0 100 42" style="enable-background:new 0 0 100 42;" xml:space="preserve">
<style type="text/css">
	.st0{clip-path:url(#SVGID_2_);fill:#ED1C24;}
	.st1{fill:#FFF200;}
	.st2{fill-rule:evenodd;clip-rule:evenodd;fill:#FFFFFF;}
	.st3{fill:#FFFFFF;}
	.st4{font-family:'Swiss721BT-BoldCondensed';}
	.st5{font-size:5.5253px;}
</style>
<g id="Layer_1">
	<g>
	</g>
	<g>
		<defs>
			<rect id="SVGID_1_" x="0" y="0" width="100" height="42"/>
		</defs>
		<clipPath id="SVGID_2_">
			<use xlink:href="#SVGID_1_"  style="overflow:visible;"/>
		</clipPath>
		<rect x="-86.2" y="-90.5" class="st0" width="311.8" height="283.5"/>
	</g>
</g>
<g id="Layer_2">
	<g>
		<path class="st1" d="M16.7,29.4l-2.6-2.6l5.7-5.7c1.7,1.2,3.7,1.9,5.9,1.9c1.5,0,2.9-0.3,4.2-0.9L21.8,14L18,17.9L14.1,14l7.7-7.7
			l7.7,0l-5.1,5.1l8.5,8.6c1.9-1.9,3-4.4,3-7.2c0-3.6-1.8-6.7-4.5-8.5c4.8,1.4,8.4,5.8,8.4,11.1c0,3.2-1.3,6.1-3.4,8.2l3.4,3.3
			l-2.6,2.6l-3.8-3.7c-1.6,0.8-3.3,1.2-5.2,1.2c-2.5,0-4.9-0.8-6.8-2.2L16.7,29.4"/>
		<path class="st2" d="M47.5,16.7c0,0.7-0.6,1.3-1.3,1.3H45V9l1.3,0c0.7,0,1.3,0.6,1.3,1.3V16.7z M50.1,16.7c0,2.1-1.7,3.8-3.8,3.8
			l-1.3,0l0,9l-2.6,0l0-23.1h2.6l1.3,0c2.1,0,3.9,1.7,3.9,3.8L50.1,16.7"/>
		<path class="st3" d="M53.9,25.7c0,0.7,0.6,1.3,1.3,1.3c0.7,0,1.3-0.6,1.3-1.3l0-5.1l2.6,0v5.1c0,2.1-1.7,3.8-3.8,3.8
			c-2.1,0-3.8-1.7-3.8-3.8l0-15.4c0-2.1,1.7-3.9,3.8-3.9c2.1,0,3.8,1.7,3.8,3.9l0,5.1l-2.6,0v-5.1c0-0.7-0.6-1.3-1.3-1.3
			c-0.7,0-1.3,0.6-1.3,1.3V25.7"/>
		<path class="st2" d="M62.9,19.3c0-0.7,0.5-1.3,1.3-1.3h1.3v9l-1.3,0c-0.7,0-1.3-0.6-1.3-1.3L62.9,19.3z M68,29.5l-3.8,0
			c-2.3,0-3.8-1.9-3.8-3.8l0-6.4c0-2,1.9-3.8,3.8-3.8l1.3,0V9L68,9L68,29.5"/>
		<path class="st2" d="M71.8,19.3c0-0.7,0.5-1.3,1.3-1.3c0.7,0,1.3,0.5,1.3,1.3l0,6.4c0,0.6-0.7,1.3-1.3,1.3c-0.7,0-1.3-0.6-1.3-1.3
			L71.8,19.3z M76.9,25.7c0,2.2-2,3.8-3.8,3.8c-1.8,0-3.9-1.7-3.8-3.8l0-6.4c0-2.2,1.7-3.8,3.8-3.8c2.1,0,3.9,1.6,3.8,3.8V25.7"/>
		<path class="st2" d="M85.9,14.2c0,1.4-1.1,2.6-2.6,2.6c1.4,0,2.6,1.1,2.6,2.6l0,6.4c0,2.1-1.7,3.8-3.8,3.8h-3.8l0-23.1l3.8,0
			c2.1,0,3.8,1.7,3.8,3.9L85.9,14.2z M83.3,14.1l0-3.8c0-0.7-0.6-1.3-1.3-1.3l-1.3,0l0,6.4l1.3,0C82.8,15.4,83.3,14.9,83.3,14.1z
			 M82.1,18l-1.3,0l0,9h1.3c0.7,0,1.3-0.6,1.3-1.3v-6.4C83.3,18.7,82.7,18,82.1,18"/>
		<path class="st3" d="M14.2,32.1h1.3c0.8,0,1.2,0.3,1.2,1.2c0,0.8-0.4,1.2-1.2,1.2H15v1.8h-0.8V32.1z M15.3,34
			c0.5,0,0.7-0.2,0.7-0.6c0-0.5-0.2-0.6-0.6-0.6h-0.3V34H15.3z"/>
		<path class="st3" d="M17.6,32.1h1l0.9,4.3h-0.8l-0.2-1.1h-0.9l-0.2,1.1h-0.8L17.6,32.1z M18.4,34.7l-0.3-1.8l-0.3,1.8H18.4z"/>
		<path class="st3" d="M19.8,32.1h1.4c0.8,0,1.2,0.3,1.2,1.1c0,0.6-0.2,0.9-0.6,0.9c0.6,0.2,0.6,0.5,0.6,1l0,0.6
			c0,0.3,0.1,0.5,0.2,0.6h-0.9c-0.1-0.2-0.1-0.4-0.1-0.7l0-0.4v-0.1c0-0.6-0.2-0.6-0.8-0.6h-0.3v1.9h-0.7V32.1z M21,33.9
			c0.4,0,0.6-0.2,0.6-0.6c0-0.5-0.2-0.6-0.7-0.6h-0.4v1.2H21z"/>
		<path class="st3" d="M23.6,32.8h-0.9v-0.7h2.6v0.7h-0.9v3.6h-0.8V32.8z"/>
		<g>
			<path class="st3" d="M25.7,32.1h0.8v4.3h-0.8V32.1z"/>
			<path class="st3" d="M27.2,32.1h1.2c0.5,0,0.8,0.1,1,0.3c0.4,0.4,0.4,0.9,0.4,1.6c0,0.8,0,1.4-0.3,1.9c-0.2,0.4-0.6,0.5-1.3,0.5
				h-1.1V32.1z M28.3,35.8c0.3,0,0.4,0,0.5-0.2c0.2-0.3,0.2-0.7,0.2-1.4c0-0.7,0-1.1-0.2-1.3c-0.1-0.1-0.3-0.1-0.5-0.1h-0.3v3H28.3z
				"/>
		</g>
		<g>
			<path class="st3" d="M30.5,32.6c0.3-0.4,0.6-0.5,1.1-0.5c0.5,0,0.8,0.1,1.1,0.5c0.2,0.3,0.3,0.9,0.3,1.7c0,0.8-0.1,1.4-0.3,1.7
				c-0.3,0.4-0.6,0.5-1.1,0.5c-0.5,0-0.8-0.1-1.1-0.5c-0.2-0.3-0.3-0.9-0.3-1.7S30.3,32.9,30.5,32.6z M31.6,35.8
				c0.5,0,0.6-0.5,0.6-1.6c0-1.1,0-1.6-0.6-1.6S31,33.1,31,34.3C31,35.4,31,35.8,31.6,35.8z"/>
			<path class="st3" d="M37.3,34.9c0,0.1,0,0.1,0,0.2c0,1-0.4,1.5-1.2,1.5c-0.4,0-0.7-0.1-0.9-0.3c-0.4-0.4-0.4-1-0.4-2
				c0-0.8,0.1-1.4,0.2-1.6c0.2-0.4,0.5-0.6,1-0.6c0.8,0,1.2,0.4,1.2,1.4h-0.8v-0.1c0-0.5-0.1-0.7-0.4-0.7c-0.5,0-0.5,0.4-0.5,1.5
				c0,1.2,0,1.6,0.5,1.6c0.4,0,0.5-0.3,0.5-0.9v-0.1H37.3z"/>
		</g>
		<path class="st3" d="M38,32.6c0.3-0.4,0.6-0.5,1.1-0.5c0.5,0,0.8,0.1,1.1,0.5c0.2,0.3,0.3,0.9,0.3,1.7c0,0.8-0.1,1.4-0.3,1.7
			c-0.3,0.4-0.6,0.5-1.1,0.5c-0.5,0-0.8-0.1-1.1-0.5c-0.2-0.3-0.3-0.9-0.3-1.7S37.8,32.9,38,32.6z M39.1,35.8c0.5,0,0.6-0.5,0.6-1.6
			c0-1.1,0-1.6-0.6-1.6c-0.5,0-0.6,0.5-0.6,1.6C38.6,35.4,38.6,35.8,39.1,35.8z"/>
		<path class="st3" d="M41,32.1h1.2l0.6,2.8l0.6-2.8h1.2v4.3h-0.7l0-3.8L43,36.4h-0.5l-0.8-3.8l0,3.8H41V32.1z"/>
		<g>
			<path class="st3" d="M45.9,32.1V35c0,0.6,0.1,0.8,0.5,0.8c0.4,0,0.5-0.3,0.5-0.9v-2.9h0.8v2.9c0,0.4,0,0.7-0.2,1
				c-0.2,0.3-0.6,0.4-1.1,0.4c-1,0-1.3-0.4-1.3-1.4v-2.9H45.9z"/>
			<path class="st3" d="M48.4,32.1h0.8l1.1,3l0-3H51v4.3h-0.8l-1.1-3l0,3h-0.7V32.1z"/>
			<path class="st3" d="M51.7,32.1h0.8v4.3h-0.8V32.1z"/>
			<path class="st3" d="M53.9,34.9v0.3c0,0.5,0.1,0.7,0.4,0.7c0.3,0,0.5-0.2,0.5-0.5c0-0.3-0.2-0.4-0.5-0.7l-0.4-0.3
				c-0.5-0.4-0.8-0.6-0.8-1.2c0-0.7,0.4-1.1,1.2-1.1c0.8,0,1.2,0.4,1.2,1.2c0,0.1,0,0.1,0,0.2h-0.7v-0.1c0-0.5-0.1-0.6-0.5-0.6
				c-0.2,0-0.4,0.2-0.4,0.4c0,0.3,0.2,0.4,0.5,0.6l0.4,0.3c0.5,0.4,0.8,0.7,0.8,1.3c0,0.8-0.4,1.2-1.2,1.2c-0.8,0-1.2-0.4-1.2-1.3
				c0-0.1,0-0.2,0-0.3H53.9z"/>
		</g>
		<path class="st3" d="M56.6,32.8h-0.9v-0.7h2.6v0.7h-0.9v3.6h-0.8V32.8z"/>
		<path class="st3" d="M59,32.1h1l0.9,4.3h-0.8L60,35.3h-0.9l-0.2,1.1h-0.8L59,32.1z M59.9,34.7l-0.3-1.8l-0.3,1.8H59.9z"/>
		<path class="st3" d="M62.8,32.1H64c0.5,0,0.8,0.1,1,0.3c0.4,0.4,0.4,0.9,0.4,1.6c0,0.8,0,1.4-0.3,1.9c-0.2,0.4-0.6,0.5-1.3,0.5
			h-1.1V32.1z M63.9,35.8c0.3,0,0.4,0,0.5-0.2c0.2-0.3,0.2-0.7,0.2-1.4c0-0.7,0-1.1-0.2-1.3c-0.1-0.1-0.3-0.1-0.5-0.1h-0.3v3H63.9z"
			/>
		<path class="st3" d="M66.1,32.6c0.3-0.4,0.6-0.5,1.1-0.5c0.5,0,0.8,0.1,1.1,0.5c0.2,0.3,0.3,0.9,0.3,1.7c0,0.8-0.1,1.4-0.3,1.7
			c-0.3,0.4-0.6,0.5-1.1,0.5c-0.5,0-0.8-0.1-1.1-0.5c-0.2-0.3-0.3-0.9-0.3-1.7S65.9,32.9,66.1,32.6z M67.2,35.8
			c0.5,0,0.6-0.5,0.6-1.6c0-1.1,0-1.6-0.6-1.6c-0.5,0-0.6,0.5-0.6,1.6C66.6,35.4,66.7,35.8,67.2,35.8z"/>
		<g>
			<text transform="matrix(1 0 0 1.0232 68.8224 36.38)" class="st3 st4 st5"> </text>
		</g>
		<path class="st3" d="M70.4,32.1h1.2c0.7,0,1.1,0.3,1.1,1c0,0.6-0.2,0.9-0.5,0.9c0.4,0.1,0.6,0.4,0.6,1c0,0.9-0.4,1.3-1.1,1.3h-1.3
			V32.1z M71.4,33.9c0.4,0,0.5-0.1,0.5-0.6c0-0.4-0.1-0.5-0.5-0.5h-0.2v1.1H71.4z M71.5,35.8c0.4,0,0.5-0.2,0.5-0.7
			c0-0.5-0.2-0.7-0.6-0.7h-0.2v1.4H71.5z"/>
		<path class="st3" d="M73.3,32.1h1.4c0.8,0,1.2,0.3,1.2,1.1c0,0.6-0.2,0.9-0.6,0.9c0.6,0.2,0.6,0.5,0.6,1l0,0.6
			c0,0.3,0.1,0.5,0.2,0.6h-0.9c-0.1-0.2-0.1-0.4-0.1-0.7l0-0.4v-0.1c0-0.6-0.2-0.6-0.8-0.6H74v1.9h-0.7V32.1z M74.5,33.9
			c0.4,0,0.6-0.2,0.6-0.6c0-0.5-0.2-0.6-0.7-0.6H74v1.2H74.5z"/>
		<path class="st3" d="M77.1,32.1h1l0.9,4.3h-0.8l-0.2-1.1h-0.9L77,36.4h-0.8L77.1,32.1z M77.9,34.7l-0.3-1.8l-0.3,1.8H77.9z"/>
		<path class="st3" d="M80.1,34.9v0.3c0,0.5,0.1,0.7,0.4,0.7c0.3,0,0.5-0.2,0.5-0.5c0-0.3-0.2-0.4-0.5-0.7l-0.4-0.3
			c-0.5-0.4-0.8-0.6-0.8-1.2c0-0.7,0.4-1.1,1.2-1.1c0.8,0,1.2,0.4,1.2,1.2c0,0.1,0,0.1,0,0.2H81v-0.1c0-0.5-0.1-0.6-0.5-0.6
			c-0.2,0-0.4,0.2-0.4,0.4c0,0.3,0.2,0.4,0.5,0.6L81,34c0.5,0.4,0.8,0.7,0.8,1.3c0,0.8-0.4,1.2-1.2,1.2c-0.8,0-1.2-0.4-1.2-1.3
			c0-0.1,0-0.2,0-0.3H80.1z"/>
		<path class="st3" d="M82.3,32.1h0.8v4.3h-0.8V32.1z"/>
		<path class="st3" d="M83.7,32.1h0.8v3.5h1.4v0.7h-2.2V32.1z"/>
	</g>
</g>
</svg>
